# xmcd
#
# Track frame offsets:
#	150
#	18835
#	44130
#	60417
#	79857
#	100427
#	121390
#	141795
#	163992
#	189692
#	211492
#	235612
#
# Disc length: 3408 seconds
#
# Revision: 2
# Processed by: cddbd v1.5.2PL0 Copyright (c) Steve Scherf et al.
# Submitted via: EZCDAudioConverter 8.0.2.1
#
DISCID=a90d4e0c
DTITLE=Huyền Châu - Nỗi Lòng Người Đi
DYEAR=1989
DGENRE=
TTITLE0=Bướm trắng
TTITLE1=Hướng về Hà Nội
TTITLE2=Mưa Sài Gòn, mưa Hà Nội
TTITLE3=Em đi rồi
TTITLE4=Để quên con tim
TTITLE5=Mười năm yêu em
TTITLE6=Nỗi Lòng Người Đi
TTITLE7=Đường xưa lối cũ
TTITLE8=Tuổi biết buồn
TTITLE9=Anh
TTITLE10=Thuyền viễn xứ
TTITLE11=Gót hồng thôi hết phiêu du
EXTD=
EXTT0=
EXTT1=
EXTT2=
EXTT3=
EXTT4=
EXTT5=
EXTT6=
EXTT7=
EXTT8=
EXTT9=
EXTT10=
EXTT11=
PLAYORDER=
